<svg xmlns="http://www.w3.org/2000/svg" xmlns:xlink="http://www.w3.org/1999/xlink" version="1.1" x="0px" y="0px" viewBox="0 0 64 80" style="enable-background:new 0 0 64 64;" xml:space="preserve"><g><path d="M31.38,41.44l6.33-5.68c0.2-0.18,0.37-0.37,0.53-0.58h20.48c0.95,0,1.72-0.77,1.72-1.72V1.72c0-0.95-0.77-1.72-1.72-1.72   H16.25c-0.27,0-0.49,0.22-0.49,0.49v12.29c-4.53,0.26-8.15,4.02-8.15,8.61c0,4.76,3.88,8.64,8.64,8.64c4.76,0,8.64-3.88,8.64-8.64   c0-4.6-3.61-8.36-8.15-8.61V0.98h41.98c0.41,0,0.73,0.33,0.73,0.73v31.75c0,0.4-0.33,0.73-0.73,0.73H38.78   c0.18-0.46,0.29-0.94,0.29-1.43c0.01-1.14-0.46-2.25-1.3-3.03c-0.39-0.36-0.82-0.63-1.29-0.81l4.02-12.21   c0.08-0.26-0.06-0.54-0.31-0.62c-0.26-0.09-0.54,0.06-0.62,0.31l-4.04,12.27c-1.2-0.16-2.45,0.19-3.38,1.09l-3.73,3.57l-17.54-0.07   c-0.01,0-0.02,0-0.03,0c-3.74,0-6.92,2.67-7.55,6.36L1.43,50.38c-0.15,0.85,0.08,1.72,0.63,2.38c0.55,0.66,1.37,1.04,2.23,1.04   h16.5c1.6,0,2.91-1.3,2.91-2.91v-8.01c0-0.73,0.59-1.32,1.31-1.32h6.03C31.17,41.56,31.29,41.52,31.38,41.44z M23.9,21.39   c0,4.22-3.43,7.65-7.65,7.65S8.6,25.62,8.6,21.39s3.43-7.65,7.65-7.65S23.9,17.17,23.9,21.39z M25.02,40.58   c-1.27,0-2.3,1.03-2.3,2.3v8.01c0,1.06-0.86,1.93-1.92,1.93H9.22l1.64-9.68c0.05-0.27-0.14-0.52-0.4-0.57   c-0.27-0.05-0.52,0.14-0.57,0.4l-1.67,9.84H4.3c-0.57,0-1.11-0.25-1.48-0.69c-0.37-0.44-0.52-1.01-0.42-1.58l1.87-10.76   c0.55-3.22,3.32-5.55,6.58-5.55c0.01,0,0.02,0,0.03,0l17.74,0.07c0,0,0,0,0,0c0.13,0,0.25-0.05,0.34-0.14l3.87-3.71   c1.19-1.14,3.07-1.15,4.27-0.02c0.64,0.6,0.99,1.42,0.98,2.3c-0.01,0.88-0.38,1.69-1.03,2.28l-6.19,5.55H25.02z"/><path d="M23.06,7.56h13.27c0.27,0,0.49-0.22,0.49-0.49c0-0.27-0.22-0.49-0.49-0.49H23.06c-0.27,0-0.49,0.22-0.49,0.49   C22.56,7.34,22.79,7.56,23.06,7.56z"/><path d="M23.06,12.38h31.21c0.27,0,0.49-0.22,0.49-0.49c0-0.27-0.22-0.49-0.49-0.49H23.06c-0.27,0-0.49,0.22-0.49,0.49   C22.56,12.16,22.79,12.38,23.06,12.38z"/><path d="M54.27,16.51h-8.78C45.22,16.51,45,16.73,45,17s0.22,0.49,0.49,0.49h8.78c0.27,0,0.49-0.22,0.49-0.49   S54.54,16.51,54.27,16.51z"/><path d="M54.27,23.06H43.09c-0.27,0-0.49,0.22-0.49,0.49c0,0.27,0.22,0.49,0.49,0.49h11.18c0.27,0,0.49-0.22,0.49-0.49   C54.76,23.28,54.54,23.06,54.27,23.06z"/><path d="M31.65,50.87c0,2.44,1.99,4.43,4.43,4.43c2.44,0,4.43-1.99,4.43-4.43c0-2.44-1.99-4.43-4.43-4.43   C33.63,46.44,31.65,48.43,31.65,50.87z M39.52,50.87c0,1.9-1.54,3.44-3.44,3.44c-1.9,0-3.44-1.54-3.44-3.44   c0-1.9,1.54-3.44,3.44-3.44C37.97,47.43,39.52,48.97,39.52,50.87z"/><path d="M38.86,56.25h-5.73c-2.63,0-4.77,2.14-4.77,4.77v2.49c0,0.27,0.22,0.49,0.49,0.49h14.27c0.27,0,0.49-0.22,0.49-0.49v-2.49   C43.62,58.39,41.49,56.25,38.86,56.25z M42.64,63.02H29.35v-2c0-2.08,1.7-3.78,3.78-3.78h5.73c2.09,0,3.78,1.7,3.78,3.78V63.02z"/><path d="M55.06,46.44c-2.44,0-4.43,1.99-4.43,4.43c0,2.44,1.99,4.43,4.43,4.43s4.43-1.99,4.43-4.43   C59.49,48.43,57.5,46.44,55.06,46.44z M55.06,54.31c-1.9,0-3.44-1.54-3.44-3.44c0-1.9,1.54-3.44,3.44-3.44   c1.9,0,3.44,1.54,3.44,3.44C58.5,52.77,56.96,54.31,55.06,54.31z"/><path d="M57.85,56.25h-5.73c-2.63,0-4.77,2.14-4.77,4.77v2.49c0,0.27,0.22,0.49,0.49,0.49h14.27c0.27,0,0.49-0.22,0.49-0.49v-2.49   C62.61,58.39,60.47,56.25,57.85,56.25z M61.63,63.02H48.34v-2c0-2.08,1.7-3.78,3.78-3.78h5.73c2.09,0,3.78,1.7,3.78,3.78V63.02z"/></g><text x="0" y="79" fill="#000000" font-size="5px" font-weight="bold" font-family="'Helvetica Neue', Helvetica, Arial-Unicode, Arial, Sans-serif">Created by Ranksol</text><text x="0" y="84" fill="#000000" font-size="5px" font-weight="bold" font-family="'Helvetica Neue', Helvetica, Arial-Unicode, Arial, Sans-serif">from the Noun Project</text></svg>